<?xml version="1.0" encoding="UTF-8"?>
<svg version="1.1" xmlns="http://www.w3.org/2000/svg" width="1024" height="1024">
<path d="M0 0 C337.92 0 675.84 0 1024 0 C1024 337.92 1024 675.84 1024 1024 C686.08 1024 348.16 1024 0 1024 C0 686.08 0 348.16 0 0 Z " fill="#FEFEFE" transform="translate(0,0)"/>
<path d="M0 0 C11.88 0 23.76 0 36 0 C49.15129358 31.43981122 62.01719615 62.9973145 74.88330078 94.5546875 C75.7151692 96.59505211 76.54703769 98.6354167 77.37890625 100.67578125 C77.77964355 101.65874176 78.18038086 102.64170227 78.59326172 103.65444946 C80.95864641 109.45412962 83.33267963 115.25016301 85.71484375 121.04296875 C86.24513812 122.33491895 86.77533531 123.62690904 87.30541992 124.91894531 C88.23634225 127.18638703 89.16989775 129.45275034 90.10668945 131.71777344 C90.49945068 132.67586914 90.89221191 133.63396484 91.296875 134.62109375 C91.63041992 135.4298999 91.96396484 136.23870605 92.30761719 137.07202148 C93 139 93 139 93 141 C93.66 141 94.32 141 95 141 C95.38478516 139.91525391 95.38478516 139.91525391 95.77734375 138.80859375 C97.06832492 135.84304914 98.6034052 133.63109096 100.5625 131.0625 C104.90950058 125.20655857 108.83299753 119.1343413 112.73339844 112.97998047 C114.12125379 110.81045331 115.53112171 108.65635413 116.9453125 106.50390625 C117.44248779 105.74480957 117.93966309 104.98571289 118.4519043 104.20361328 C119.42149738 102.7246054 120.39417988 101.24761692 121.37036133 99.77294922 C121.81404053 99.09377441 122.25771973 98.41459961 122.71484375 97.71484375 C123.10792725 97.11792725 123.50101074 96.52101074 123.90600586 95.90600586 C125.24377989 93.5752757 126.30723213 91.61272453 127 89 C126.04840135 86.4593301 126.04840135 86.4593301 124.22265625 84.03515625 C123.57087402 83.0807666 122.9190918 82.12637695 122.24755859 81.14306641 C121.52648926 80.12647949 120.80541992 79.10989258 120.0625 78.0625 C119.33627441 77.00724121 118.61004883 75.95198242 117.86181641 74.86474609 C116.3440521 72.6618365 114.82107611 70.46410614 113.28662109 68.27294922 C110.42871709 64.18229568 107.61016599 60.06569463 104.79858398 55.94311523 C103.55432945 54.12024049 102.30544502 52.3005137 101.05102539 50.48461914 C97.13236284 44.78658906 93.4902693 38.9699043 90 33 C94.7687841 32.87624921 99.53663077 32.78559354 104.30664062 32.7253418 C105.92855105 32.70022228 107.55034854 32.66611972 109.171875 32.62280273 C111.50549171 32.56203147 113.83761048 32.53376706 116.171875 32.51171875 C116.89493835 32.48591232 117.61800171 32.4601059 118.36297607 32.43351746 C121.95013955 32.43152642 123.61419572 32.63236008 126.25048828 35.14453125 C126.82782715 36.08683594 127.40516602 37.02914062 128 38 C128.62406738 38.97493408 129.24813477 39.94986816 129.89111328 40.9543457 C130.52774902 42.01741943 131.16438477 43.08049316 131.8203125 44.17578125 C132.52713672 45.34452627 133.23417399 46.51314247 133.94140625 47.68164062 C135.04142385 49.50816424 136.13906446 51.3360327 137.23291016 53.16625977 C138.29742051 54.94414811 139.37070743 56.71648191 140.4453125 58.48828125 C141.07969238 59.54571533 141.71407227 60.60314941 142.36767578 61.69262695 C142.90634277 62.45406006 143.44500977 63.21549316 144 64 C144.66 64 145.32 64 146 64 C146.4031543 63.27409668 146.80630859 62.54819336 147.22167969 61.80029297 C148.73301645 59.08188339 150.2466192 56.36475144 151.76171875 53.6484375 C152.73350016 51.90460841 153.70271016 50.15934715 154.671875 48.4140625 C155.290625 47.30546875 155.909375 46.196875 156.546875 45.0546875 C157.39523926 43.53077393 157.39523926 43.53077393 158.26074219 41.97607422 C158.83469727 40.99396973 159.40865234 40.01186523 160 39 C160.57427734 37.89720703 161.14855469 36.79441406 161.74023438 35.65820312 C164 33 164 33 167.48339844 32.31884766 C168.8590898 32.31979172 170.23502301 32.35336488 171.609375 32.4140625 C172.33618469 32.42255219 173.06299438 32.43104187 173.81182861 32.43978882 C176.12608121 32.47329399 178.43680705 32.54855068 180.75 32.625 C182.32156413 32.65510411 183.89318308 32.68247917 185.46484375 32.70703125 C189.31124813 32.7730735 193.15502691 32.87656079 197 33 C195.66843173 36.59703646 194.06309619 39.69160473 191.98828125 42.9140625 C191.39466797 43.84089844 190.80105469 44.76773438 190.18945312 45.72265625 C189.57005859 46.68042969 188.95066406 47.63820313 188.3125 48.625 C187.71244141 49.55957031 187.11238281 50.49414062 186.49414062 51.45703125 C185.27539434 53.35518605 184.05491618 55.25222991 182.83276367 57.14819336 C181.02557188 59.96020979 179.2340946 62.78171482 177.4453125 65.60546875 C174.21991583 70.67983912 170.9102234 75.69321754 167.5625 80.6875 C167.02173828 81.49638672 166.48097656 82.30527344 165.92382812 83.13867188 C164.61696954 85.0931772 163.30902668 87.0469464 162 89 C163.41101242 91.98039518 165.04217138 94.64650626 166.9140625 97.359375 C167.7966272 98.6446106 167.7966272 98.6446106 168.69702148 99.95581055 C169.33325439 100.87789307 169.9694873 101.79997559 170.625 102.75 C176.96203833 111.9798155 183.20380403 121.267876 189.36767578 130.61425781 C193.25139176 136.47567059 197.28650725 142.17805007 201.51586914 147.79614258 C203 150 203 150 203 152 C203.66 152 204.32 152 205 152 C205 152.66 205 153.32 205 154 C175.7946749 156.34672754 175.7946749 156.34672754 168.61767578 152.83398438 C165.1773766 149.68471674 163.65946366 145.63847385 162.03173828 141.35009766 C160.03764416 136.80794195 156.98986424 132.90126404 154.125 128.875 C153.04274945 127.29010031 151.96193858 125.70421623 150.8828125 124.1171875 C148.7097823 120.9704808 146.44636563 117.94272967 144 115 C143.39414062 115.98097656 142.78828125 116.96195313 142.1640625 117.97265625 C137.39772734 125.66023168 132.55399808 133.27900029 127.48876953 140.77368164 C127.10446777 141.3433667 126.72016602 141.91305176 126.32421875 142.5 C125.95540588 143.02710068 125.58659302 143.55420135 125.206604 144.09727478 C123.9478332 145.97138366 123.9478332 145.97138366 123.11172485 148.06433105 C121.97506297 150.48627983 120.94071206 152.14451414 119 154 C114.90174544 155.13438569 110.92391304 154.93222992 106.69921875 154.78125 C104.91195122 154.76427063 104.91195122 154.76427063 103.08857727 154.74694824 C99.2865759 154.7021992 95.48835941 154.60182374 91.6875 154.5 C89.10877845 154.45987181 86.52999774 154.42336992 83.95117188 154.390625 C77.63282539 154.30246794 71.31668303 154.16863991 65 154 C64.64808594 153.04222656 64.29617188 152.08445312 63.93359375 151.09765625 C63.43505594 149.75254481 62.93634839 148.40749628 62.4375 147.0625 C62.0962207 146.13147461 62.0962207 146.13147461 61.74804688 145.18164062 C58.71332621 137.02336558 55.32103741 129.06537656 52 121 C17.845 120.505 17.845 120.505 -17 120 C-17.33 121.65 -17.66 123.3 -18 125 C-18.7805215 127.13576561 -19.60808204 129.25462817 -20.46875 131.359375 C-20.95730469 132.55691406 -21.44585937 133.75445313 -21.94921875 134.98828125 C-22.20364746 135.60525879 -22.45807617 136.22223633 -22.72021484 136.85791016 C-23.50246335 138.75597713 -24.27711618 140.65701419 -25.05078125 142.55859375 C-28.86312386 151.86312386 -28.86312386 151.86312386 -30 153 C-32.3756852 153.0883967 -34.72208674 153.11530305 -37.09765625 153.09765625 C-38.16094398 153.09553383 -38.16094398 153.09553383 -39.24571228 153.09336853 C-41.51801712 153.08775443 -43.79022475 153.07519963 -46.0625 153.0625 C-47.59960796 153.05748681 -49.13671745 153.05292359 -50.67382812 153.04882812 C-54.44925642 153.03778042 -58.22461171 153.02050641 -62 153 C-58.07629444 142.3207763 -53.91867445 131.75961892 -49.56945801 121.24688721 C-47.79725002 116.96245785 -46.03394118 112.67436398 -44.26953125 108.38671875 C-43.90938934 107.51208984 -43.54924744 106.63746094 -43.17819214 105.73632812 C-39.67041959 97.21201047 -36.20619491 88.67033071 -32.75 80.125 C-26.65072174 65.05198731 -20.51895875 49.99235383 -14.375 34.9375 C-13.94312378 33.878797 -13.51124756 32.82009399 -13.06628418 31.72930908 C-11.82334288 28.68261317 -10.5797525 25.63618306 -9.3359375 22.58984375 C-8.78989365 21.25129082 -8.78989365 21.25129082 -8.2328186 19.88569641 C-5.51934878 13.24369674 -2.75976981 6.62344755 0 0 Z " fill="#030303" transform="translate(482,445)"/>
<path d="M0 0 C17.49 0 34.98 0 53 0 C59.87816757 16.04905767 59.87816757 16.04905767 62.41796875 22.6484375 C62.86069374 23.78868378 62.86069374 23.78868378 63.31236267 24.95196533 C63.94451062 26.58032937 64.57566382 28.20907989 65.20587158 29.8381958 C66.93467323 34.30590599 68.67241104 38.77013736 70.41015625 43.234375 C70.77639099 44.17548126 71.14262573 45.11658752 71.5199585 46.08621216 C76.0118125 57.61617531 80.567264 69.12095678 85.125 80.625 C85.52600922 81.63761902 85.92701843 82.65023804 86.34017944 83.69354248 C89.95890899 92.83049758 93.58123843 101.96580804 97.2421875 111.0859375 C99.44146001 116.57433753 101.57870818 122.08374901 103.69140625 127.60595703 C105.15854939 131.41122269 106.65386683 135.20463813 108.15625 138.99609375 C108.42904785 139.68522858 108.7018457 140.3743634 108.98291016 141.0843811 C110.10161103 143.90976436 111.22073523 146.73497203 112.34326172 149.55883789 C115.69093836 157.98444009 118.92408747 166.42202573 121.89672852 174.98876953 C123.29261764 178.79866032 124.96932951 182.43678558 126.6875 186.109375 C130.64843597 194.83286493 133.97848719 203.85750426 137.375 212.8125 C137.63788818 213.50045654 137.90077637 214.18841309 138.17163086 214.8972168 C140 219.76447425 140 219.76447425 140 222 C121.52 222 103.04 222 84 222 C79.10258493 209.75646233 74.579928 197.36580561 70 185 C43.27 184.67 16.54 184.34 -11 184 C-7.62539022 172.75130073 -7.62539022 172.75130073 -6.09765625 169 C-5.76443359 168.175 -5.43121094 167.35 -5.08789062 166.5 C-4.74951172 165.675 -4.41113281 164.85 -4.0625 164 C-3.72798828 163.175 -3.39347656 162.35 -3.04882812 161.5 C-2.41493793 159.93664845 -1.77924685 158.3740245 -1.14086914 156.8125 C0.5889167 152.54818737 2.29093608 148.27265981 4 144 C20.5 144 37 144 54 144 C52.02 138.823125 50.04 133.64625 48 128.3125 C36.14363953 97.30513787 36.14363953 97.30513787 30.31640625 81.9140625 C29.3569184 79.38015242 28.39728575 76.84629725 27.4375 74.3125 C27.19868103 73.68201752 26.95986206 73.05153503 26.71380615 72.40194702 C23.74992087 64.58015627 20.76000221 56.77005505 17.70947266 48.98168945 C14.3730428 40.43864694 11.14425718 31.85415652 7.90625 23.2734375 C7.45894531 22.09007812 7.01164062 20.90671875 6.55078125 19.6875 C5.90616943 17.98207031 5.90616943 17.98207031 5.24853516 16.2421875 C3.79327973 12.46319022 2.26115644 8.71971327 0.68823242 4.98828125 C0 3 0 3 0 0 Z " fill="#216EA8" transform="translate(251,376)"/>
<path d="M0 0 C2.56472944 1.28236472 2.64009735 2.16514198 3.63232422 4.81030273 C4.09322952 6.02308144 4.09322952 6.02308144 4.56344604 7.26036072 C5.05411057 8.58361107 5.05411057 8.58361107 5.5546875 9.93359375 C5.89750763 10.84069595 6.24032776 11.74779816 6.59353638 12.68238831 C7.69401197 15.59830324 8.78474816 18.51774888 9.875 21.4375 C10.96017744 24.3243038 12.04733211 27.21035557 13.13504028 30.09620667 C13.81151404 31.89311788 14.48617265 33.69071391 15.15866089 35.48912048 C15.62902267 36.74445335 15.62902267 36.74445335 16.10888672 38.02514648 C16.41324646 38.84643036 16.7176062 39.66771423 17.03118896 40.5138855 C17.69565535 42.21900595 18.40916095 43.90558194 19.16265869 45.57327271 C22.38844852 52.82537736 22.39400464 56.91327604 19.79638672 64.52856445 C19.05799561 66.27206177 19.05799561 66.27206177 18.3046875 68.05078125 C17.75787496 69.36501718 17.21200334 70.67964493 16.66699219 71.99462891 C16.24975891 72.9907016 16.24975891 72.9907016 15.82409668 74.00689697 C14.5184216 77.16471209 13.29386055 80.35262782 12.0703125 83.54296875 C11.58489025 84.80244435 11.09937523 86.06188419 10.61376953 87.32128906 C10.37096252 87.95200317 10.12815552 88.58271729 9.87799072 89.23254395 C5.40698614 100.8404127 0.87296932 112.42011343 -3.77587891 123.95800781 C-6.54667694 130.84355699 -9.30428606 137.73440238 -12.0625 144.625 C-12.3703241 145.39384521 -12.67814819 146.16269043 -12.99530029 146.95483398 C-16.6362048 156.05120382 -20.26386071 165.15146944 -23.7878418 174.29394531 C-25.07226889 177.62502371 -26.37490624 180.94703986 -27.7109375 184.2578125 C-27.99066406 184.95100586 -28.27039063 185.64419922 -28.55859375 186.35839844 C-29.31507507 188.22697968 -30.07534405 190.0940263 -30.8359375 191.9609375 C-32.11424996 195.11551905 -32.11424996 195.11551905 -33 199 C-47.52 199 -62.04 199 -77 199 C-75.65142489 192.93141198 -74.47974527 188.21476679 -72.19921875 182.625 C-71.79046005 181.6136776 -71.79046005 181.6136776 -71.3734436 180.58192444 C-70.78853513 179.13696007 -70.2004847 177.69326412 -69.60952759 176.25076294 C-68.34231189 173.15736079 -67.09066615 170.05772793 -65.8377533 166.95851135 C-65.18822367 165.35241973 -64.53787756 163.74665807 -63.88673401 162.14122009 C-60.64133722 154.13611064 -57.47023418 146.10250811 -54.3125 138.0625 C-53.77194787 136.68788465 -53.23133929 135.31329149 -52.69067383 133.9387207 C-51.37773081 130.59992612 -50.06594674 127.26067768 -48.75457764 123.92126465 C-47.54664831 120.84570051 -46.33771356 117.77053164 -45.12890625 114.6953125 C-41.54968672 105.58818025 -37.97322956 96.47996473 -34.3984375 87.37109375 C-28.79461152 73.09537306 -23.17128685 58.82746781 -17.53768921 44.56347656 C-11.67384594 29.71601222 -5.8296564 14.860921 0 0 Z " fill="#206FA9" transform="translate(244,400)"/>
<path d="M0 0 C0.495 0.99 0.495 0.99 1 2 C0.19555664 4.24658203 0.19555664 4.24658203 -1.08984375 7.0078125 C-1.77143555 8.48701172 -1.77143555 8.48701172 -2.46679688 9.99609375 C-2.95212891 11.02863281 -3.43746094 12.06117188 -3.9375 13.125 C-4.41896484 14.16527344 -4.90042969 15.20554687 -5.39648438 16.27734375 C-6.59067598 18.85490582 -7.79210372 21.42883881 -9 24 C-12.60067176 23.3170751 -15.83003563 22.3874862 -19.25 21.0625 C-30.23703157 17.04463606 -43.82881983 13.97548118 -55 19 C-56.24448656 22.73345969 -56.6378662 26.12724094 -56 30 C-50.53943031 38.00883555 -38.37865951 39.85368975 -29.5625 42.375 C-17.65522602 45.91779322 -7.29097379 49.36072575 0 60 C0.433125 60.62003906 0.86625 61.24007812 1.3125 61.87890625 C5.76838824 69.78501351 5.46722473 81.3407046 3.234375 89.953125 C2.30640213 92.11839503 1.27619733 94.02366664 0 96 C-0.86625 97.546875 -0.86625 97.546875 -1.75 99.125 C-9.11174087 108.53166889 -18.97997692 113.97797806 -30.80078125 115.71484375 C-52.89429656 117.68410702 -73.33581622 112.67454166 -90.59375 98.25 C-91.0578125 97.8375 -91.521875 97.425 -92 97 C-90.24584045 92.50828842 -88.31542936 88.1007936 -86.375 83.6875 C-86.05015625 82.94693359 -85.7253125 82.20636719 -85.390625 81.44335938 C-84.59446849 79.62859087 -83.79733283 77.81425198 -83 76 C-79.09825696 76 -76.83675935 77.76744868 -73.625 79.75 C-62.27231029 86.46324157 -48.71727762 91.26156454 -35.5 87.875 C-31.42233326 86.42618272 -29.03297482 84.9735417 -27 81 C-26.39135977 77.34815863 -26.5925132 75.67387999 -28.51171875 72.5 C-31.80115336 69.19507355 -34.91057081 68.29174476 -39.3125 67 C-40.107771 66.75000244 -40.90304199 66.50000488 -41.72241211 66.24243164 C-44.1442813 65.48132793 -46.57161543 64.74000773 -49 64 C-64.34315757 59.22865222 -75.81194628 54.62323964 -84 40 C-87.34358817 31.73139683 -87.43776595 21.41501426 -84.09375 13.0859375 C-78.74177743 2.87896124 -70.96150462 -2.33467177 -60.375 -6.375 C-41.50494482 -11.71221087 -17.45821366 -8.68610631 0 0 Z " fill="#030303" transform="translate(839,484)"/>
<path d="M0 0 C13.53 0 27.06 0 41 0 C41 49.17 41 98.34 41 149 C37.04 149 33.08 149 29 149 C23.90640585 137.14900157 19.0667775 125.21230777 14.38549805 113.19238281 C13.96179932 112.10538086 13.53810059 111.01837891 13.1015625 109.8984375 C12.6473291 108.68631592 12.1930957 107.47419434 11.72509766 106.2253418 C10.47829045 103.02274629 9.00531664 100.00083879 7.44287109 96.94067383 C-1.74842616 78.03886676 -1.21681695 60.14638959 -0.68664551 39.58911133 C-0.56406169 34.31630781 -0.52005235 29.04227416 -0.46211243 23.76844025 C-0.36662326 15.84316898 -0.1745319 7.92568751 0 0 Z " fill="#206EA8" transform="translate(377,449)"/>
<path d="M0 0 C9.57 0 19.14 0 29 0 C29 39.6 29 79.2 29 120 C19.43 120 9.86 120 0 120 C0 80.4 0 40.8 0 0 Z " fill="#010101" transform="translate(699,478)"/>
<path d="M0 0 C6.02219759 3.17838206 11.38422996 8.54028218 13.53125 15.13671875 C15.28875631 24.54951699 14.07598241 32.60477638 8.8125 40.5 C4.61049108 45.18882703 -2.16912352 48.92316235 -8.4453125 49.55078125 C-16.62125546 49.77206746 -21.92712446 47.85011681 -28.8125 43.625 C-35.29551039 36.96190599 -37.51965965 29.34947382 -37.3984375 20.2578125 C-36.48757833 12.27190769 -32.12523459 6.71995482 -26.125 1.6875 C-18.64216552 -3.30105632 -8.21306761 -3.40945832 0 0 Z " fill="#206EA8" transform="translate(408.0625,376.6875)"/>
<path d="M0 0 C2.91765461 1.4588273 3.05933121 3.31873245 4.1796875 6.3515625 C4.82296997 8.07282349 4.82296997 8.07282349 5.47924805 9.82885742 C5.94456029 11.09421563 6.40980935 12.35959708 6.875 13.625 C7.85510436 16.26022451 8.83990765 18.89368818 9.82421875 21.52734375 C10.07933731 22.21212296 10.33445587 22.89690216 10.5973053 23.60243225 C12.48882175 28.66912909 14.42868658 33.71561841 16.39453125 38.75390625 C16.67111572 39.46335388 16.9477002 40.17280151 17.23266602 40.90374756 C18.3189108 43.68779005 19.40624691 46.47138491 20.49871826 49.25299072 C21.25592494 51.18187448 22.0091407 53.1122754 22.76171875 55.04296875 C23.19444092 56.14664795 23.62716309 57.25032715 24.07299805 58.38745117 C25 61 25 61 25 63 C8.83 63 -7.34 63 -24 63 C-20.62515959 52.87547876 -20.62515959 52.87547876 -19.27001953 49.42089844 C-18.96605255 48.64268738 -18.66208557 47.86447632 -18.34890747 47.06268311 C-18.03009613 46.25309143 -17.71128479 45.44349976 -17.3828125 44.609375 C-17.04377899 43.74290344 -16.70474548 42.87643188 -16.35543823 41.98370361 C-15.28074334 39.23830036 -14.20299147 36.49411029 -13.125 33.75 C-12.05745541 31.02667197 -10.99055406 28.30309266 -9.92376709 25.57946777 C-9.23575064 23.82293818 -8.547482 22.06650735 -7.85894775 20.31018066 C-5.21063011 13.55101492 -2.59183465 6.78105379 0 0 Z " fill="#FAFAFA" transform="translate(499,476)"/>
<path d="M0 0 C8.1772009 7.76834086 8.1772009 7.76834086 8.703125 13.64453125 C8.80193223 19.00482331 8.70686407 22.8653474 5.5 27.375 C0.35867083 32.63640268 -2.97910251 35.14784532 -10.375 35.625 C-16.50727514 35.53398293 -21.12397742 32.51448081 -25.5 28.375 C-29.42928091 22.95530219 -29.38593114 16.80432881 -28.5 10.375 C-26.6937677 5.41388196 -23.55151025 1.37728197 -18.72265625 -1 C-12.48606939 -2.75369754 -5.87101345 -2.72582768 0 0 Z " fill="#040404" transform="translate(723.5,426.625)"/>
<path d="M0 0 C13.53 0 27.06 0 41 0 C41 49.17 41 98.34 41 149 C37.04 149 33.08 149 29 149 C28.01 146.525 28.01 146.525 27 144 C27.66 143.67 28.32 143.34 29 143 C29.33 144.65 29.66 146.3 30 148 C33.3 148 36.6 148 40 148 C39.67 99.82 39.34 51.64 39 2 C27.12 2.33 15.24 2.66 3 3 C3.02320313 8.15109375 3.04640625 13.3021875 3.0703125 18.609375 C3.08053138 21.87240087 3.0901593 25.13540702 3.09765625 28.3984375 C3.10961251 33.57784115 3.12375806 38.7571741 3.15087891 43.93652344 C3.17260714 48.11215235 3.1845686 52.28770545 3.18975449 56.46338654 C3.19345028 58.05659427 3.2006672 59.64979786 3.21146011 61.24297333 C3.22597485 63.47424798 3.22797796 65.70520918 3.22705078 67.93652344 C3.231492 69.20671326 3.23593323 70.47690308 3.24050903 71.7855835 C3.01464072 74.80432598 2.5974076 76.47455016 1 79 C-0.49121778 76.01756445 -0.13001472 72.97384248 -0.11352539 69.70458984 C-0.11367142 68.95327286 -0.11381744 68.20195587 -0.1139679 67.4278717 C-0.11326996 64.9388645 -0.10548314 62.44993167 -0.09765625 59.9609375 C-0.09579165 58.23743735 -0.09436794 56.51393666 -0.09336853 54.79043579 C-0.08954669 50.24974103 -0.07971922 45.70907815 -0.06866455 41.168396 C-0.05664683 35.72270364 -0.0520466 30.27700064 -0.04621124 24.83129883 C-0.03650731 16.55417703 -0.01734842 8.27712522 0 0 Z " fill="#2E6992" transform="translate(377,449)"/>
<path d="M0 0 C2.80859171 1.48013306 5.5700648 2.98277937 7.875 5.1875 C7.875 5.8475 7.875 6.5075 7.875 7.1875 C6.885 7.1875 5.895 7.1875 4.875 7.1875 C4.875 6.5275 4.875 5.8675 4.875 5.1875 C4.276875 5.39375 3.67875 5.6 3.0625 5.8125 C0.875 6.1875 0.875 6.1875 -2.125 4.1875 C-2.8125 2.0625 -2.8125 2.0625 -3.125 0.1875 C-5.77180904 0.30089204 -8.41677518 0.42762873 -11.0625 0.5625 C-12.19461914 0.60890625 -12.19461914 0.60890625 -13.34960938 0.65625 C-15.28007395 0.7601315 -17.20442081 0.96645614 -19.125 1.1875 C-19.455 1.8475 -19.785 2.5075 -20.125 3.1875 C-23.1568856 5.06936002 -24.37017355 5.1875 -28.125 5.1875 C-28.2796875 6.1465625 -28.2796875 6.1465625 -28.4375 7.125 C-28.664375 7.805625 -28.89125 8.48625 -29.125 9.1875 C-30.115 9.5175 -31.105 9.8475 -32.125 10.1875 C-34.67094719 17.2893527 -35.5348953 25.95781411 -33.125 33.1875 C-30.77132152 37.35512502 -30.77132152 37.35512502 -27.125 40.1875 C-27.125 41.1775 -27.125 42.1675 -27.125 43.1875 C-25.5471875 43.0946875 -25.5471875 43.0946875 -23.9375 43 C-20.125 43.1875 -20.125 43.1875 -17.8125 44.6875 C-14.43435276 46.57297753 -12.1516334 46.49133738 -8.3125 46.375 C-7.15105469 46.34792969 -5.98960937 46.32085937 -4.79296875 46.29296875 C-3.91253906 46.25816406 -3.03210938 46.22335937 -2.125 46.1875 C-2.62 47.1775 -2.62 47.1775 -3.125 48.1875 C-9.34361809 50.2603727 -15.97150744 50.0168047 -22 47.4375 C-29.17036419 43.75024866 -32.785959 39.48202034 -36.125 32.1875 C-38.24499829 25.45180923 -38.05247992 18.36223781 -35.125 11.9375 C-27.91222554 -0.93074534 -13.84059433 -6.00065634 0 0 Z " fill="#2F6790" transform="translate(408.125,376.8125)"/>
<path d="M0 0 C0.33 0 0.66 0 1 0 C1.00331015 0.69298848 1.00662029 1.38597696 1.01003075 2.0999651 C1.09119723 18.95005429 1.18326868 35.80004484 1.28752708 52.65000629 C1.33768147 60.79847137 1.38412401 68.94692623 1.421875 77.09545898 C1.45478227 84.19645623 1.49460639 91.29737494 1.54279006 98.39828557 C1.56806772 102.1593071 1.58984519 105.92027646 1.60334396 109.68136024 C1.61853053 113.87663717 1.64915707 118.07166331 1.68115234 122.2668457 C1.68331253 123.51840958 1.68547272 124.76997345 1.68769836 126.0594635 C1.70444359 127.76951569 1.70444359 127.76951569 1.7215271 129.51411438 C1.72705786 130.50688542 1.73258862 131.49965647 1.73828697 132.52251148 C1.83281004 135.25212268 1.83281004 135.25212268 4 138 C3.67 139.65 3.34 141.3 3 143 C13.56 143 24.12 143 35 143 C35 143.66 35 144.32 35 145 C33.46291382 145.03758423 33.46291382 145.03758423 31.89477539 145.07592773 C28.10590324 145.16984484 24.31722119 145.27010317 20.52856445 145.37231445 C18.88635697 145.41572297 17.24410261 145.45739358 15.60180664 145.49731445 C13.24611255 145.5548744 10.89065572 145.61860892 8.53515625 145.68359375 C7.42733543 145.70866249 7.42733543 145.70866249 6.2971344 145.73423767 C2.85699373 145.53548013 2.85699373 145.53548013 0 147 C-1.4555937 147.09858603 -2.91607919 147.12972143 -4.375 147.125 C-5.16648437 147.12757813 -5.95796875 147.13015625 -6.7734375 147.1328125 C-9 147 -9 147 -12 146 C-12 145.34 -12 144.68 -12 144 C-8.04 144 -4.08 144 0 144 C0 96.48 0 48.96 0 0 Z " fill="#DDF4FE" transform="translate(418,454)"/>
<path d="M0 0 C1.00628848 3.51297947 0.8370669 5.37726564 -0.3125 8.875 C-0.59351563 9.74640625 -0.87453125 10.6178125 -1.1640625 11.515625 C-1.43992188 12.33546875 -1.71578125 13.1553125 -2 14 C-2.391875 15.19625 -2.78375 16.3925 -3.1875 17.625 C-3.455625 18.40875 -3.72375 19.1925 -4 20 C-4.66 20 -5.32 20 -6 20 C-6.04898438 20.61488281 -6.09796875 21.22976563 -6.1484375 21.86328125 C-6.22320312 22.67152344 -6.29796875 23.47976563 -6.375 24.3125 C-6.44460937 25.11300781 -6.51421875 25.91351562 -6.5859375 26.73828125 C-7 29 -7 29 -9 32 C-9.66 32 -10.32 32 -11 32 C-11.061875 33.27875 -11.12375 34.5575 -11.1875 35.875 C-11.69912393 40.78969048 -13.49323005 44.39619488 -15.94140625 48.640625 C-17.1838512 50.96586644 -17.1838512 50.96586644 -16.96484375 53.609375 C-17 56 -17 56 -18.43359375 57.53515625 C-18.95050781 58.01855469 -19.46742188 58.50195312 -20 59 C-20.71324331 61.1304594 -20.71324331 61.1304594 -21.0625 63.4375 C-21.63025721 66.63316203 -22.43424806 69.14786266 -24 72 C-24.99 72 -25.98 72 -27 72 C-26.39571298 67.46913123 -25.2121256 63.59462507 -23.515625 59.35546875 C-23.13735817 58.40259979 -23.13735817 58.40259979 -22.75144958 57.43048096 C-21.92308774 55.34726615 -21.0865447 53.26744069 -20.25 51.1875 C-19.67100826 49.73535551 -19.09264873 48.2829588 -18.51489258 46.83032227 C-17.30417549 43.78760315 -16.09069054 40.74600854 -14.87548828 37.70507812 C-12.07796892 30.69658283 -9.31919361 23.672818 -6.55773926 16.65005493 C-5.16890004 13.11897652 -3.77774885 9.58880952 -2.38671875 6.05859375 C-1.92483154 4.88611084 -1.46294434 3.71362793 -0.98706055 2.50561523 C-0.49846558 1.26533569 -0.49846558 1.26533569 0 0 Z " fill="#346C97" transform="translate(203,504)"/>
<path d="M0 0 C1.25127906 3.54667178 0.72285053 5.72253438 -0.4375 9.25 C-0.86869141 10.58804687 -0.86869141 10.58804687 -1.30859375 11.953125 C-1.53675781 12.62859375 -1.76492187 13.3040625 -2 14 C-2.66 14 -3.32 14 -4 14 C-4 15.32 -4 16.64 -4 18 C-4.66 18 -5.32 18 -6 18 C-6 20.31 -6 22.62 -6 25 C-6.99 25.33 -7.98 25.66 -9 26 C-9.12375 26.969375 -9.2475 27.93875 -9.375 28.9375 C-11.36170213 42.51329787 -11.36170213 42.51329787 -15 46 C-15.66 46 -16.32 46 -17 46 C-17 46.99 -17 47.98 -17 49 C-17.66 49 -18.32 49 -19 49 C-16.80101961 40.90128798 -13.77918361 33.24243257 -10.5625 25.5 C-9.60521246 23.17718894 -8.64817712 20.85427392 -7.69140625 18.53125 C-7.00715576 16.87609375 -7.00715576 16.87609375 -6.30908203 15.1875 C-4.76958936 11.43897029 -3.26636661 7.67692878 -1.77709961 3.90820312 C-1 2 -1 2 0 0 Z " fill="#346D96" transform="translate(239,414)"/>
<path d="M0 0 C0.66 0 1.32 0 2 0 C3.40611204 3.31033698 4.16464871 5.28635878 3.34423828 8.84228516 C2.71364502 10.30093994 2.71364502 10.30093994 2.0703125 11.7890625 C1.60794189 12.88694092 1.14557129 13.98481934 0.66918945 15.1159668 C0.15960693 16.27394775 -0.34997559 17.43192871 -0.875 18.625 C-1.9004076 21.04008106 -2.92514069 23.45544861 -3.94921875 25.87109375 C-4.46403809 27.06847168 -4.97885742 28.26584961 -5.50927734 29.49951172 C-7.65145733 34.52974044 -9.67567334 39.60405349 -11.6875 44.6875 C-12.33694383 46.31652419 -12.98665094 47.94544346 -13.63671875 49.57421875 C-14.31154297 51.26998047 -14.31154297 51.26998047 -15 53 C-16.32757546 49.01727361 -15.3296542 46.9189808 -14 43 C-13.34 42.01 -12.68 41.02 -12 40 C-11.63445127 38.5540517 -11.32554816 37.09305927 -11.0625 35.625 C-10.30143774 31.88057368 -9.13612469 29.20418704 -7 26 C-7 25.34 -7 24.68 -7 24 C-6.34 24 -5.68 24 -5 24 C-5.020625 22.906875 -5.04125 21.81375 -5.0625 20.6875 C-5 17 -5 17 -4 14 C-3.34 14 -2.68 14 -2 14 C-1.690625 12.906875 -1.38125 11.81375 -1.0625 10.6875 C-0.41662103 8.44592006 0.2623117 6.2130649 1 4 C0.61067144 1.85744207 0.61067144 1.85744207 0 0 Z " fill="#306691" transform="translate(240,509)"/>
<path d="M0 0 C0.495 0.99 0.495 0.99 1 2 C-2.24397594 3.92891955 -4.56981733 4.22452816 -8.31933594 4.13525391 C-9.38013367 4.11508209 -10.4409314 4.09491028 -11.53387451 4.0741272 C-12.67253967 4.04193085 -13.81120483 4.0097345 -14.984375 3.9765625 C-16.15510559 3.95153656 -17.32583618 3.92651062 -18.53204346 3.90072632 C-22.27165778 3.81854899 -26.01074229 3.72194905 -29.75 3.625 C-32.2851346 3.56675824 -34.82029095 3.50945501 -37.35546875 3.453125 C-43.57060591 3.31297334 -49.7853693 3.16097852 -56 3 C-56 2.34 -56 1.68 -56 1 C-37.52 0.67 -19.04 0.34 0 0 Z " fill="#D8ECF8" transform="translate(391,597)"/>
<path d="M0 0 C1 3 1 3 0 7 C-14.52 7 -29.04 7 -44 7 C-44 6.34 -44 5.68 -44 5 C-29.81 4.67 -15.62 4.34 -1 4 C-0.67 2.68 -0.34 1.36 0 0 Z " fill="#4D7CA0" transform="translate(211,592)"/>
<path d="M0 0 C2 3 2 3 5 13 C-11.5 13 -28 13 -45 13 C-45 12.67 -45 12.34 -45 12 C-29.16 12 -13.32 12 3 12 C3 11.01 3 10.02 3 9 C0.69 9 -1.62 9 -4 9 C-2.25 2.25 -2.25 2.25 0 0 Z " fill="#EAFAFC" transform="translate(300,507)"/>
<path d="M0 0 C3 4 3 4 7 15 C-11.15 15 -29.3 15 -48 15 C-48.33 13.68 -48.66 12.36 -49 11 C-48.01 11.495 -48.01 11.495 -47 12 C-47 12.66 -47 13.32 -47 14 C-30.5 13.67 -14 13.34 3 13 C2.01 10.03 1.02 7.06 0 4 C0 2.68 0 1.36 0 0 Z " fill="#2871A9" transform="translate(384,582)"/>
<path d="M0 0 C3.50555218 2.75587084 4.72324345 6.65197117 6.25 10.6875 C6.53101563 11.37005859 6.81203125 12.05261719 7.1015625 12.75585938 C10.18598717 20.84102206 8.29293549 27.19839915 5.0625 34.9375 C4.79759766 35.60845703 4.53269531 36.27941406 4.25976562 36.97070312 C2.26425595 41.86787202 2.26425595 41.86787202 0 43 C0.19335938 42.43152344 0.38671875 41.86304688 0.5859375 41.27734375 C1.40268001 38.85541919 2.20225991 36.42824301 3 34 C3.391875 32.824375 3.78375 31.64875 4.1875 30.4375 C6.12834484 22.22623339 4.34331607 15.89868978 2 8 C1.30852269 5.33886005 0.65500923 2.67042224 0 0 Z " fill="#356991" transform="translate(257,434)"/>
<path d="M0 0 C0.33 0 0.66 0 1 0 C1 2.97 1 5.94 1 9 C0.34 9 -0.32 9 -1 9 C-1.144375 9.78375 -1.28875 10.5675 -1.4375 11.375 C-2 14 -2 14 -3 16 C-3.66 16 -4.32 16 -5 16 C-5.66 20.29 -6.32 24.58 -7 29 C-7.99 29 -8.98 29 -10 29 C-10 29.66 -10 30.32 -10 31 C-8.68 31.33 -7.36 31.66 -6 32 C-7.98 32 -9.96 32 -12 32 C-10.02687203 24.98192116 -7.63194201 18.24592403 -4.875 11.5 C-4.51535156 10.60796875 -4.15570313 9.7159375 -3.78515625 8.796875 C-1.1860119 2.37202381 -1.1860119 2.37202381 0 0 Z " fill="#376A91" transform="translate(252,528)"/>
<path d="M0 0 C0.66 0.99 1.32 1.98 2 3 C1.67 4.65 1.34 6.3 1 8 C11.56 8 22.12 8 33 8 C33 8.66 33 9.32 33 10 C31.97527588 10.02505615 30.95055176 10.0501123 29.89477539 10.07592773 C26.10590324 10.16984484 22.31722119 10.27010317 18.52856445 10.37231445 C16.88635697 10.41572297 15.24410261 10.45739358 13.60180664 10.49731445 C11.24611255 10.5548744 8.89065572 10.61860892 6.53515625 10.68359375 C5.79660904 10.70030624 5.05806183 10.71701874 4.2971344 10.73423767 C0.85699373 10.53548013 0.85699373 10.53548013 -2 12 C-3.4555937 12.09858603 -4.91607919 12.12972143 -6.375 12.125 C-7.16648437 12.12757813 -7.95796875 12.13015625 -8.7734375 12.1328125 C-11 12 -11 12 -14 11 C-14 10.34 -14 9.68 -14 9 C-9.71 9 -5.42 9 -1 9 C-0.67 6.03 -0.34 3.06 0 0 Z " fill="#ADB7BB" transform="translate(420,589)"/>
<path d="M0 0 C2.91316254 1.45658127 3.09207774 3.36160014 4.1875 6.375 C4.55230469 7.35210937 4.91710937 8.32921875 5.29296875 9.3359375 C6 12 6 12 5 15 C4.67 13.68 4.34 12.36 4 11 C3.34 11 2.68 11 2 11 C1.67 12.65 1.34 14.3 1 16 C0.34 16 -0.32 16 -1 16 C-3.31323995 12.53014008 -3.03975162 11.01711296 -2.42578125 7.0078125 C-1.89999623 4.52842261 -1.07459989 2.29247976 0 0 Z " fill="#27699D" transform="translate(244,400)"/>
<path d="M0 0 C0.66 0 1.32 0 2 0 C2 0.99 2 1.98 2 3 C3.5778125 2.9071875 3.5778125 2.9071875 5.1875 2.8125 C9 3 9 3 11.3125 4.5 C14.69064724 6.38547753 16.9733666 6.30383738 20.8125 6.1875 C21.97394531 6.16042969 23.13539063 6.13335937 24.33203125 6.10546875 C25.21246094 6.07066406 26.09289062 6.03585937 27 6 C26.67 6.66 26.34 7.32 26 8 C19.75761772 10.08079409 13.12069271 9.81192229 7.0625 7.25 C3.81335526 5.61960479 1.33338658 3.84064453 -1 1 C-0.67 0.67 -0.34 0.34 0 0 Z " fill="#3D7198" transform="translate(379,417)"/>
<path d="M0 0 C0.66 0 1.32 0 2 0 C0 5 0 5 -1.046875 7.35546875 C-4.1179454 15.87643047 -1.44930214 24.03888746 2 32 C0.02 32 -1.96 32 -4 32 C-5.64568532 20.78402162 -5.60945279 10.09701502 0 0 Z " fill="#E7FAFE" transform="translate(374,384)"/>
<path d="M0 0 C1.69452613 2.5417892 2.73684889 4.61509768 3.83984375 7.421875 C4.18080078 8.28296875 4.52175781 9.1440625 4.87304688 10.03125 C5.22431641 10.9284375 5.57558594 11.825625 5.9375 12.75 C6.63329404 14.51594852 7.32989444 16.28157956 8.02734375 18.046875 C8.35935791 18.89113037 8.69137207 19.73538574 9.03344727 20.60522461 C9.90175553 22.75658499 10.82406443 24.87184973 11.7734375 26.98828125 C13 30 13 30 12.6875 32.4375 C12.460625 32.953125 12.23375 33.46875 12 34 C11.34 33.67 10.68 33.34 10 33 C9.5859375 30.93359375 9.5859375 30.93359375 9.375 28.4375 C9.26285156 27.19806641 9.26285156 27.19806641 9.1484375 25.93359375 C9.07496094 24.97646484 9.07496094 24.97646484 9 24 C8.34 24 7.68 24 7 24 C6.01811439 21.41767086 5.03940411 18.83421317 4.0625 16.25 C3.78470703 15.52039063 3.50691406 14.79078125 3.22070312 14.0390625 C2.95322266 13.33007812 2.68574219 12.62109375 2.41015625 11.890625 C2.04096069 10.91657715 2.04096069 10.91657715 1.66430664 9.92285156 C0.44619393 6.396995 0 3.79597814 0 0 Z " fill="#396F9D" transform="translate(370,545)"/>
<path d="M0 0 C1.32 0 2.64 0 4 0 C4.33 0.66 4.66 1.32 5 2 C5.66 2 6.32 2 7 2 C7.33 1.34 7.66 0.68 8 0 C7.40895235 4.84659077 6.02055843 8.60748167 4 13 C3.34 12.67 2.68 12.34 2 12 C2 11.01 2 10.02 2 9 C1.34 9 0.68 9 0 9 C0 6.03 0 3.06 0 0 Z " fill="#296D9F" transform="translate(242,496)"/>
<path d="M0 0 C1.51977226 2.37031504 2.11183811 3.46520943 1.52441406 6.27416992 C1.19151367 7.08474854 0.85861328 7.89532715 0.515625 8.73046875 C0.15726563 9.61541016 -0.20109375 10.50035156 -0.5703125 11.41210938 C-0.95960938 12.32798828 -1.34890625 13.24386719 -1.75 14.1875 C-2.31074219 15.5787207 -2.31074219 15.5787207 -2.8828125 16.99804688 C-5.71235599 23.856178 -5.71235599 23.856178 -8 25 C-7.125 18.125 -7.125 18.125 -6 17 C-5.76924918 15.65252916 -5.58846937 14.29622435 -5.4375 12.9375 C-5.2209375 10.9884375 -5.2209375 10.9884375 -5 9 C-4.34 9 -3.68 9 -3 9 C-3.061875 8.2575 -3.12375 7.515 -3.1875 6.75 C-2.96905704 3.54616994 -2.09749995 2.35968744 0 0 Z " fill="#326D99" transform="translate(221,564)"/>
<path d="M0 0 C0.66 0 1.32 0 2 0 C3.3923652 2.8116794 4.2435485 4.96431363 3.50878906 8.08886719 C2.62909252 10.396418 1.65889331 12.63236377 0.625 14.875 C0.28210938 15.65875 -0.06078125 16.4425 -0.4140625 17.25 C-1.25887493 19.17429498 -2.12715521 21.08825703 -3 23 C-3.66 22.67 -4.32 22.34 -5 22 C-4.67 19.36 -4.34 16.72 -4 14 C-3.34 14 -2.68 14 -2 14 C-1.690625 12.906875 -1.38125 11.81375 -1.0625 10.6875 C-0.41662103 8.44592006 0.2623117 6.2130649 1 4 C0.61067144 1.85744207 0.61067144 1.85744207 0 0 Z " fill="#326C96" transform="translate(240,509)"/>
<path d="M0 0 C0.57105469 0.33773438 1.14210938 0.67546875 1.73046875 1.0234375 C8.67474989 4.84334414 15.15665388 6.17632572 23 7 C22.67 7.66 22.34 8.32 22 9 C19.89590361 9.02701408 17.79170822 9.04640223 15.6875 9.0625 C14.51574219 9.07410156 13.34398437 9.08570313 12.13671875 9.09765625 C7.7655815 8.96156854 5.93028138 8.05768492 3 5 C2.34 4.67 1.68 4.34 1 4 C1 3.34 1 2.68 1 2 C0.34 1.67 -0.32 1.34 -1 1 C-0.67 0.67 -0.34 0.34 0 0 Z " fill="#E8FAFD" transform="translate(378,419)"/>
<path d="M0 0 C0.99 0.33 1.98 0.66 3 1 C3.94921875 3.28515625 3.94921875 3.28515625 4.6875 6.0625 C4.93886719 6.98160156 5.19023437 7.90070313 5.44921875 8.84765625 C5.63097656 9.55792969 5.81273437 10.26820313 6 11 C4.6875 12.5 4.6875 12.5 3 14 C2.01 14 1.02 14 0 14 C-1.41778293 11.16443413 -0.86257622 9.0091294 -0.5625 5.875 C-0.46066406 4.77929688 -0.35882813 3.68359375 -0.25390625 2.5546875 C-0.17011719 1.71164062 -0.08632812 0.86859375 0 0 Z " fill="#2772AB" transform="translate(250,418)"/>
<path d="M0 0 C0.99 0 1.98 0 3 0 C4.53266582 3.06533164 4.10276471 6.26754272 4.0625 9.625 C4.05798828 10.33140625 4.05347656 11.0378125 4.04882812 11.765625 C4.03703875 13.51045275 4.01910324 15.255237 4 17 C3.34 17.33 2.68 17.66 2 18 C1.27533198 16.06855012 0.57073223 14.12956051 -0.125 12.1875 C-0.51945312 11.10855469 -0.91390625 10.02960938 -1.3203125 8.91796875 C-1.54460937 7.95503906 -1.76890625 6.99210937 -2 6 C-1.34 5.01 -0.68 4.02 0 3 C0 2.01 0 1.02 0 0 Z " fill="#2B71A2" transform="translate(267,408)"/>
<path d="M0 0 C0.66 0 1.32 0 2 0 C4.46678293 3.49460914 5.65768944 6.97306831 7 11 C8.36767047 13.81723738 9.74948986 16.62399933 11.171875 19.4140625 C12 22 12 22 10 26 C6.7 17.42 3.4 8.84 0 0 Z " fill="#DEF5FB" transform="translate(334,453)"/>
<path d="M0 0 C0.66 0 1.32 0 2 0 C1.67 2.31 1.34 4.62 1 7 C0.34 7 -0.32 7 -1 7 C-1.33 9.97 -1.66 12.94 -2 16 C-0.35 15.34 1.3 14.68 3 14 C3 14.99 3 15.98 3 17 C0.03 17 -2.94 17 -6 17 C-4.02 11.39 -2.04 5.78 0 0 Z " fill="#2E6D9E" transform="translate(173,580)"/>
<path d="M0 0 C2.67927341 4.01891012 2.15601248 6.24161923 2 11 C2.99 11 3.98 11 5 11 C5.33 14.63 5.66 18.26 6 22 C3.13178897 18.17571863 1.86240878 15.33389672 0.3125 10.875 C-0.12449219 9.63492187 -0.56148438 8.39484375 -1.01171875 7.1171875 C-2 4 -2 4 -2 2 C-1.34 2 -0.68 2 0 2 C0 1.34 0 0.68 0 0 Z " fill="#2F6791" transform="translate(292,476)"/>
<path d="M0 0 C1.175625 0.01353516 1.175625 0.01353516 2.375 0.02734375 C4.29180055 0.05071937 6.20844191 0.08658347 8.125 0.125 C8.455 0.785 8.785 1.445 9.125 2.125 C8.03960937 2.09019531 6.95421875 2.05539062 5.8359375 2.01953125 C4.39064058 1.99137612 2.94532679 1.96407781 1.5 1.9375 C0.78714844 1.91236328 0.07429688 1.88722656 -0.66015625 1.86132812 C-7.18268428 1.77156856 -11.52871639 3.94875013 -16.75 7.8125 C-17.78125 8.575625 -18.8125 9.33875 -19.875 10.125 C-19.06701385 6.30106554 -17.96153702 4.62759758 -14.875 2.125 C-9.82969143 -0.03618798 -5.3776389 -0.11849035 0 0 Z " fill="#D4ECF6" transform="translate(395.875,373.875)"/>
<path d="M0 0 C2.12508244 3.18762365 2.5020163 5.26512223 3 9 C2.401875 9.20625 1.80375 9.4125 1.1875 9.625 C-1.81018767 11.50926082 -2.61361776 13.81132084 -4 17 C-4.66 17 -5.32 17 -6 17 C-4.13236819 11.27789404 -2.14710968 5.62338249 0 0 Z " fill="#346E9C" transform="translate(212,481)"/>
<path d="M0 0 C3.27580028 1.63790014 3.86530313 5.17373993 5.125 8.4375 C5.40214844 9.13166016 5.67929687 9.82582031 5.96484375 10.54101562 C8 15.71913485 8 15.71913485 8 18 C7.01 17.67 6.02 17.34 5 17 C5 16.01 5 15.02 5 14 C4.34 14 3.68 14 3 14 C3 13.34 3 12.68 3 12 C2.34 12 1.68 12 1 12 C1.33 10.02 1.66 8.04 2 6 C1.34 6 0.68 6 0 6 C0 4.02 0 2.04 0 0 Z " fill="#316F9F" transform="translate(330,445)"/>
<path d="M0 0 C3.03952713 4.5592907 5 8.47162419 5 14 C4.01 14.33 3.02 14.66 2 15 C1.01 14.01 0.02 13.02 -1 12 C-0.67 11.01 -0.34 10.02 0 9 C-0.32759934 6.66585471 -0.66073053 4.33247761 -1 2 C-0.67 1.34 -0.34 0.68 0 0 Z " fill="#316E9A" transform="translate(339,466)"/>
<path d="M0 0 C6.93 0 13.86 0 21 0 C21 0.33 21 0.66 21 1 C13.08 1.495 13.08 1.495 5 2 C5.33 5.63 5.66 9.26 6 13 C2.52167425 9.52167425 1.59930761 4.58468182 0 0 Z " fill="#2D72AC" transform="translate(251,378)"/>
<path d="M0 0 C0.66 0 1.32 0 2 0 C0.07443364 6.85618326 -2.2472483 13.43252132 -5 20 C-5.33 20 -5.66 20 -6 20 C-6.24286612 15.87127599 -5.3938787 12.87188527 -4 9 C-3.67 7.7625 -3.34 6.525 -3 5.25 C-2 2 -2 2 0 0 Z " fill="#DEF4FB" transform="translate(252,522)"/>
<path d="M0 0 C0.66 0 1.32 0 2 0 C3.28195532 3.84586595 3.18415545 7.49322597 3.1875 11.5 C3.19974609 12.27214844 3.21199219 13.04429687 3.22460938 13.83984375 C3.23476991 17.7482648 3.21572048 19.67641928 1 23 C-0.0176403 17.98391475 -0.11856434 13.21391694 -0.0625 8.125 C-0.05798828 7.34125 -0.05347656 6.5575 -0.04882812 5.75 C-0.03714093 3.83329986 -0.01920908 1.91663952 0 0 Z " fill="#E7F6FC" transform="translate(421,389)"/>
<path d="M0 0 C0.66 0 1.32 0 2 0 C-0.39690506 7.44302097 -3.15262441 14.71837152 -6 22 C-6.33 22 -6.66 22 -7 22 C-7.46166681 14.15166426 -3.5483306 6.82371268 0 0 Z " fill="#D7F2FA" transform="translate(186,543)"/>
<path d="M0 0 C0.99 0.33 1.98 0.66 3 1 C3.33 2.98 3.66 4.96 4 7 C4.66 7 5.32 7 6 7 C7.99785435 11.1205746 8.17835515 14.45194365 8 19 C5.91855733 16.91855733 5.42631862 15.80710207 4.4921875 13.0859375 C4.22792969 12.32539062 3.96367187 11.56484375 3.69140625 10.78125 C3.42199219 9.9871875 3.15257812 9.193125 2.875 8.375 C2.59785156 7.57320312 2.32070313 6.77140625 2.03515625 5.9453125 C1.35158852 3.96532321 0.67511573 1.98288708 0 0 Z " fill="#E1F5FB" transform="translate(358,513)"/>
<path d="M0 0 C0.33 0.66 0.66 1.32 1 2 C1.66 2.33 2.32 2.66 3 3 C2.34 3 1.68 3 1 3 C1.0825 4.0725 1.165 5.145 1.25 6.25 C1 10 1 10 -0.875 12.1875 C-1.926875 13.0846875 -1.926875 13.0846875 -3 14 C-4.23512079 16.13309192 -4.23512079 16.13309192 -5 18 C-6.39214652 13.82356045 -4.70664266 11.16562207 -3.0625 7.3125 C-2.77181641 6.61060547 -2.48113281 5.90871094 -2.18164062 5.18554688 C-1.46289687 3.45349225 -0.73254669 1.72626219 0 0 Z " fill="#DDF0F8" transform="translate(251,494)"/>
<path d="M0 0 C1.32 0 2.64 0 4 0 C6.8352113 5.5522888 7.37952295 9.80112515 7 16 C5.1290051 13.19350765 3.76982048 10.50039527 2.375 7.4375 C1.92898438 6.46683594 1.48296875 5.49617188 1.0234375 4.49609375 C0 2 0 2 0 0 Z " fill="#E0F4FA" transform="translate(351,496)"/>
<path d="M0 0 C0.99 0.99 1.98 1.98 3 3 C2.67 3.99 2.34 4.98 2 6 C1.34 6 0.68 6 0 6 C-0.103125 6.53625 -0.20625 7.0725 -0.3125 7.625 C-1.18092697 10.62502044 -2.55620296 13.2379535 -4 16 C-4.66 16 -5.32 16 -6 16 C-4.25192871 10.53262809 -2.34205919 5.24175152 0 0 Z " fill="#3473A1" transform="translate(219,464)"/>
<path d="M0 0 C0.66 0 1.32 0 2 0 C7.13251099 5.58020666 7.85196071 11.67878439 8 19 C5.27227952 16.27227952 4.2539869 13.02994255 2.875 9.5 C2.59785156 8.81035156 2.32070313 8.12070312 2.03515625 7.41015625 C0 2.26712592 0 2.26712592 0 0 Z " fill="#DFF5FB" transform="translate(326,432)"/>
<path d="M0 0 C0.99 0 1.98 0 3 0 C3.268125 1.093125 3.53625 2.18625 3.8125 3.3125 C4.62723909 6.91638695 4.62723909 6.91638695 6.625 8.4375 C9.02217274 11.16155994 8.17185931 14.50552741 8 18 C5.08274448 14.6122194 3.71744176 10.92662445 2.3125 6.75 C2.08755859 6.1003125 1.86261719 5.450625 1.63085938 4.78125 C1.08083773 3.18969801 0.53953212 1.59513844 0 0 Z " fill="#336A92" transform="translate(277,446)"/>
<path d="M0 0 C2.08432499 3.12648749 3.28558611 6.05730868 4.625 9.5625 C5.07101562 10.71878906 5.51703125 11.87507812 5.9765625 13.06640625 C7 16 7 16 7 18 C6.01 17.67 5.02 17.34 4 17 C2.83203125 14.453125 2.83203125 14.453125 1.8125 11.25 C1.46832031 10.20328125 1.12414062 9.1565625 0.76953125 8.078125 C0.05727377 5.22909507 -0.15663753 2.91669884 0 0 Z " fill="#D8EEF7" transform="translate(393,566)"/>
<path d="M0 0 C0.99 0.33 1.98 0.66 3 1 C1.27933894 6.44876003 -0.84705349 11.71169451 -3 17 C-4.56393356 13.02623171 -3.36145292 10.18622097 -2.0625 6.25 C-1.68222656 5.07953125 -1.30195313 3.9090625 -0.91015625 2.703125 C-0.60980469 1.81109375 -0.30945313 0.9190625 0 0 Z " fill="#D8EFF8" transform="translate(243,543)"/>
<path d="M0 0 C0.66 0.66 1.32 1.32 2 2 C2.66 1.67 3.32 1.34 4 1 C4 2.98 4 4.96 4 7 C4.66 7.33 5.32 7.66 6 8 C6.625 10.5625 6.625 10.5625 7 13 C6.01 13.33 5.02 13.66 4 14 C3.32739649 12.23141309 2.66211605 10.46003984 2 8.6875 C1.62875 7.70136719 1.2575 6.71523438 0.875 5.69921875 C0 3 0 3 0 0 Z " fill="#326E9A" transform="translate(258,394)"/>
<path d="M0 0 C1.97885999 2.96828999 3.25864997 5.77447054 4.625 9.0625 C5.07101562 10.12597656 5.51703125 11.18945312 5.9765625 12.28515625 C7 15 7 15 7 17 C5.68 16.67 4.36 16.34 3 16 C2.33333333 13.33333333 1.66666667 10.66666667 1 8 C0.81308594 7.33484375 0.62617188 6.6696875 0.43359375 5.984375 C0 4 0 4 0 0 Z " fill="#3C7098" transform="translate(352,499)"/>
<path d="M0 0 C0.66 0 1.32 0 2 0 C2 0.66 2 1.32 2 2 C2.99 2 3.98 2 5 2 C5 4.31 5 6.62 5 9 C5.66 9 6.32 9 7 9 C7 10.32 7 11.64 7 13 C6.34 13 5.68 13 5 13 C4.16209211 11.21046815 3.32980604 9.41830305 2.5 7.625 C1.80390625 6.12839844 1.80390625 6.12839844 1.09375 4.6015625 C0 2 0 2 0 0 Z " fill="#336C96" transform="translate(271,430)"/>
<path d="M0 0 C2.55227651 3.07150755 3.88776704 5.98525624 5.1875 9.75 C5.53167969 10.73484375 5.87585938 11.7196875 6.23046875 12.734375 C6.61138672 13.85585938 6.61138672 13.85585938 7 15 C5.68 15 4.36 15 3 15 C2 10 1 5 0 0 Z " fill="#396B91" transform="translate(384,582)"/>
<path d="M0 0 C0.33 0 0.66 0 1 0 C1 2.97 1 5.94 1 9 C0.34 9 -0.32 9 -1 9 C-1.12375 9.78375 -1.2475 10.5675 -1.375 11.375 C-2 14 -2 14 -4 16 C-3.65697965 10.01488629 -3.17692157 5.24882694 0 0 Z " fill="#336F9E" transform="translate(252,528)"/>
<path d="M0 0 C2.34914492 2.34914492 2.73140357 3.95679446 3.625 7.125 C3.88539063 8.03507813 4.14578125 8.94515625 4.4140625 9.8828125 C4.70410156 10.93082031 4.70410156 10.93082031 5 12 C4.01 12 3.02 12 2 12 C1.46809459 10.56656 0.94984742 9.12804633 0.4375 7.6875 C0.14746094 6.88699219 -0.14257812 6.08648438 -0.44140625 5.26171875 C-1 3 -1 3 0 0 Z " fill="#356F9D" transform="translate(364,530)"/>
<path d="M0 0 C1.86551426 3.58752742 3.42535928 7.27812193 5 11 C3.02 11 1.04 11 -1 11 C-1.14285714 3.57142857 -1.14285714 3.57142857 0 0 Z " fill="#DBEEF5" transform="translate(371,405)"/>
<path d="M0 0 C2 2 2 2 2.125 5.625 C2.08375 6.73875 2.0425 7.8525 2 9 C0.02 9.99 0.02 9.99 -2 11 C-3 9 -3 9 -2.44140625 6.8359375 C-2.15136719 6.02382813 -1.86132812 5.21171875 -1.5625 4.375 C-1.27503906 3.55773437 -0.98757812 2.74046875 -0.69140625 1.8984375 C-0.46324219 1.27195312 -0.23507813 0.64546875 0 0 Z " fill="#E1F5FB" transform="translate(244,511)"/>
<path d="M0 0 C1.80030122 2.70045182 2.93377066 5.06677881 4.125 8.0625 C4.47820312 8.94035156 4.83140625 9.81820313 5.1953125 10.72265625 C6 13 6 13 6 15 C3 14 3 14 2.05078125 12.36328125 C0.5119453 8.08873693 -0.34619582 4.61594432 0 0 Z " fill="#D6EDF6" transform="translate(278,449)"/>
<path d="M0 0 C3 1 3 1 3.94921875 2.890625 C6.41063747 10.75674619 6.41063747 10.75674619 6 15 C4.19969878 12.29954818 3.06622934 9.93322119 1.875 6.9375 C1.52179688 6.05964844 1.16859375 5.18179687 0.8046875 4.27734375 C0 2 0 2 0 0 Z " fill="#DFF4FA" transform="translate(320,416)"/>
<path d="M0 0 C0.66 0 1.32 0 2 0 C2.474375 1.134375 2.94875 2.26875 3.4375 3.4375 C4.63622083 6.75740166 4.63622083 6.75740166 6 8 C6.04092937 10.33297433 6.04241723 12.66705225 6 15 C3.61874536 12.61874536 2.99813759 10.66142433 1.875 7.5 C1.52179688 6.5203125 1.16859375 5.540625 0.8046875 4.53125 C0 2 0 2 0 0 Z " fill="#DEF5FB" transform="translate(254,422)"/>
<path d="M0 0 C6.875 3.625 6.875 3.625 8 7 C7.01 7 6.02 7 5 7 C5 6.34 5 5.68 5 5 C4.1028125 5.309375 4.1028125 5.309375 3.1875 5.625 C1 6 1 6 -2 4 C-1.34 3.34 -0.68 2.68 0 2 C0 1.34 0 0.68 0 0 Z " fill="#3972A0" transform="translate(408,377)"/>
<path d="M0 0 C0.66 0 1.32 0 2 0 C2.65043719 1.72744016 3.29514844 3.4570369 3.9375 5.1875 C4.47697266 6.63189453 4.47697266 6.63189453 5.02734375 8.10546875 C5.91156562 10.7368278 6.52568586 13.26894908 7 16 C3.8601549 14.43007745 3.57856654 11.77552998 2.375 8.5625 C1.92898438 7.38816406 1.48296875 6.21382812 1.0234375 5.00390625 C0 2 0 2 0 0 Z " fill="#30648B" transform="translate(393,564)"/>
<path d="M0 0 C0.66 0 1.32 0 2 0 C4.09350689 3.4019487 4.17942163 6.05272412 4 10 C4.66 10 5.32 10 6 10 C5.67 10.99 5.34 11.98 5 13 C2.94876752 10.94876752 2.35852882 9.72994937 1.375 7.0625 C0.98441406 6.02802734 0.98441406 6.02802734 0.5859375 4.97265625 C0 3 0 3 0 0 Z " fill="#2D6A96" transform="translate(383,538)"/>
<path d="M0 0 C2 3 2 3 1.609375 4.97265625 C1.32578125 5.66230469 1.0421875 6.35195313 0.75 7.0625 C0.34007812 8.10083984 0.34007812 8.10083984 -0.078125 9.16015625 C-1 11 -1 11 -3 13 C-4.23593891 9.29218328 -3.5678132 8.32489747 -2.0625 4.8125 C-1.68222656 3.91144531 -1.30195313 3.01039063 -0.91015625 2.08203125 C-0.60980469 1.39496094 -0.30945313 0.70789063 0 0 Z " fill="#DBF1F9" transform="translate(240,522)"/>
<path d="M0 0 C0.66 0.33 1.32 0.66 2 1 C3.34661803 5.16227391 2.95719133 8.77240497 2 13 C1.01 13.66 0.02 14.32 -1 15 C-0.91621094 14.32453125 -0.83242188 13.6490625 -0.74609375 12.953125 C-0.64425781 12.06109375 -0.54242188 11.1690625 -0.4375 10.25 C-0.33308594 9.36828125 -0.22867187 8.4865625 -0.12109375 7.578125 C-0.00514472 5.10953281 -0.36770652 3.35914543 -1 1 C-0.67 0.67 -0.34 0.34 0 0 Z " fill="#D3EAF5" transform="translate(265,448)"/>
<path d="M0 0 C0.66 0.33 1.32 0.66 2 1 C2.625 4.0625 2.625 4.0625 3 7 C2.34 7 1.68 7 1 7 C0.34 8.32 -0.32 9.64 -1 11 C-2.60080151 6.99799622 -1.29279692 3.95443764 0 0 Z " fill="#356C96" transform="translate(244,400)"/>
<path d="M0 0 C0.33 0 0.66 0 1 0 C0.67 2.64 0.34 5.28 0 8 C-0.66 8 -1.32 8 -2 8 C-2 11.3 -2 14.6 -2 18 C-2.33 18 -2.66 18 -3 18 C-3.33278764 11.18401613 -3.24201565 6.07877934 0 0 Z " fill="#3C7096" transform="translate(374,387)"/>
<path d="M0 0 C2.18975773 3.28463659 2.99806563 6.20696275 4 10 C3.01 10.33 2.02 10.66 1 11 C-0.57351881 9.42648119 -0.38460149 7.67045509 -0.625 5.5 C-0.72039062 4.6853125 -0.81578125 3.870625 -0.9140625 3.03125 C-0.95660156 2.02578125 -0.95660156 2.02578125 -1 1 C-0.67 0.67 -0.34 0.34 0 0 Z " fill="#DDF2F9" transform="translate(250,376)"/>
<path d="M0 0 C0.66 0 1.32 0 2 0 C1.67 2.31 1.34 4.62 1 7 C0.34 7 -0.32 7 -1 7 C-1 8.65 -1 10.3 -1 12 C-1.99 12 -2.98 12 -4 12 C-3.52309796 10.37433394 -3.04340334 8.74948689 -2.5625 7.125 C-2.29566406 6.22007812 -2.02882812 5.31515625 -1.75390625 4.3828125 C-1 2 -1 2 0 0 Z " fill="#3D749F" transform="translate(173,580)"/>
<path d="M0 0 C0.99 0.33 1.98 0.66 3 1 C4.48882438 5.07467725 5.26270217 8.66541415 5 13 C2.94876752 10.94876752 2.35852882 9.72994937 1.375 7.0625 C0.98441406 6.02802734 0.98441406 6.02802734 0.5859375 4.97265625 C0 3 0 3 0 0 Z " fill="#DFF5FC" transform="translate(309,387)"/>
<path d="M0 0 C0.74958984 0.00451172 1.49917969 0.00902344 2.27148438 0.01367188 C4.11852383 0.02543646 5.96552213 0.04337135 7.8125 0.0625 C7.8125 0.3925 7.8125 0.7225 7.8125 1.0625 C6.92046875 1.12308594 6.0284375 1.18367188 5.109375 1.24609375 C3.35367187 1.37177734 3.35367187 1.37177734 1.5625 1.5 C0.40234375 1.58121094 -0.7578125 1.66242188 -1.953125 1.74609375 C-5.06335677 1.95166293 -5.06335677 1.95166293 -7.484375 2.72265625 C-8.04640625 2.83480469 -8.6084375 2.94695312 -9.1875 3.0625 C-9.8475 2.4025 -10.5075 1.7425 -11.1875 1.0625 C-7.42449626 -0.19183458 -3.91539091 -0.04445422 0 0 Z " fill="#216EA5" transform="translate(397.1875,376.9375)"/>
<path d="M0 0 C-1.44472346 3.80881639 -3.32603071 5.29742886 -7 7 C-7.99 6.67 -8.98 6.34 -10 6 C-8.68 5.67 -7.36 5.34 -6 5 C-5.8453125 4.0409375 -5.8453125 4.0409375 -5.6875 3.0625 C-5.460625 2.381875 -5.23375 1.70125 -5 1 C-2 0 -2 0 0 0 Z " fill="#346C92" transform="translate(416,416)"/>
<path d="M0 0 C0.99 0 1.98 0 3 0 C3 1.98 3 3.96 3 6 C2.01 6.33 1.02 6.66 0 7 C-0.66 6.34 -1.32 5.68 -2 5 C-1.34 3.35 -0.68 1.7 0 0 Z " fill="#110D0C" transform="translate(425,585)"/>
<path d="M0 0 C2.96052484 3.36423277 3.92289822 6.69159287 5 11 C4.01 11.495 4.01 11.495 3 12 C1.68 8.37 0.36 4.74 -1 1 C-0.67 0.67 -0.34 0.34 0 0 Z " fill="#E2F5FA" transform="translate(379,563)"/>
<path d="M0 0 C1.32 0.33 2.64 0.66 4 1 C4.66 3.97 5.32 6.94 6 10 C5.01 10.495 5.01 10.495 4 11 C3.32880451 9.5437455 2.66318193 8.08492133 2 6.625 C1.62875 5.81289063 1.2575 5.00078125 0.875 4.1640625 C0 2 0 2 0 0 Z " fill="#D5EFF8" transform="translate(373,552)"/>
<path d="M0 0 C0.99 0 1.98 0 3 0 C2.54965877 1.62723299 2.08944646 3.25173664 1.625 4.875 C1.36976563 5.77992188 1.11453125 6.68484375 0.8515625 7.6171875 C0 10 0 10 -2 12 C-1.85904936 10.3745692 -1.71207913 8.74965949 -1.5625 7.125 C-1.48128906 6.22007812 -1.40007812 5.31515625 -1.31640625 4.3828125 C-1 2 -1 2 0 0 Z " fill="#306690" transform="translate(252,484)"/>
<path d="M0 0 C3 1 3 1 4.25 3.3125 C5.0275526 6.09873015 4.98726527 7.33438378 4 10 C4 9.34 4 8.68 4 8 C3.34 8 2.68 8 2 8 C0.74335022 5.09399739 0 3.20395416 0 0 Z " fill="#366A91" transform="translate(250,418)"/>
<path d="M0 0 C0.99 0 1.98 0 3 0 C5.27678571 6.96428571 5.27678571 6.96428571 4 11 C3.32880451 9.5437455 2.66318193 8.08492133 2 6.625 C1.62875 5.81289063 1.2575 5.00078125 0.875 4.1640625 C0 2 0 2 0 0 Z " fill="#DEF4FB" transform="translate(304,376)"/>
<path d="M0 0 C2.95183101 2.95183101 3.08663988 5.95511947 4 10 C3.01 10 2.02 10 1 10 C0.67 6.7 0.34 3.4 0 0 Z " fill="#D0EBF5" transform="translate(328,580)"/>
<path d="M0 0 C1.32 1.65 2.64 3.3 4 5 C4.66 4.67 5.32 4.34 6 4 C6 5.65 6 7.3 6 9 C4.125 8.75 4.125 8.75 2 8 C-0.02755186 5.06004981 0 3.72295997 0 0 Z " fill="#276999" transform="translate(303,511)"/>
<path d="M0 0 C0.66 0 1.32 0 2 0 C3.18224668 3.54674003 2.89329634 5.97522995 2.5625 9.6875 C2.40974609 11.45673828 2.40974609 11.45673828 2.25390625 13.26171875 C2.12822266 14.61716797 2.12822266 14.61716797 2 16 C1.67 16 1.34 16 1 16 C0.67 10.72 0.34 5.44 0 0 Z " fill="#CFE9F7" transform="translate(421,389)"/>
<path d="M0 0 C0.66 0 1.32 0 2 0 C1.67 1.32 1.34 2.64 1 4 C0.34 4 -0.32 4 -1 4 C-1.268125 4.598125 -1.53625 5.19625 -1.8125 5.8125 C-2.98493467 7.97224808 -4.19369282 9.35790256 -6 11 C-4.54997977 6.89160936 -2.6020866 3.49655387 0 0 Z " fill="#E8E8E8" transform="translate(609,585)"/>
<path d="M0 0 C0.33 1.32 0.66 2.64 1 4 C0.01 4 -0.98 4 -2 4 C-2 4.66 -2 5.32 -2 6 C-0.68 6.33 0.64 6.66 2 7 C0.02 7 -1.96 7 -4 7 C-3.39816251 4.97954558 -2.72693904 2.97888961 -2 1 C-1.34 0.67 -0.68 0.34 0 0 Z " fill="#296491" transform="translate(244,553)"/>
<path d="M0 0 C0.66 0.99 1.32 1.98 2 3 C1.3125 6.125 1.3125 6.125 0 9 C-0.99 9.33 -1.98 9.66 -3 10 C-2.01 6.7 -1.02 3.4 0 0 Z " fill="#D9EEF7" transform="translate(235,534)"/>
<path d="M0 0 C1.80125336 2.70188004 3.00243753 4.93057703 4 8 C3.67 8.99 3.34 9.98 3 11 C3 10.34 3 9.68 3 9 C2.01 8.67 1.02 8.34 0 8 C0 5.36 0 2.72 0 0 Z " fill="#376A91" transform="translate(359,517)"/>
<path d="M0 0 C0.33 0 0.66 0 1 0 C1 2.64 1 5.28 1 8 C0.34 8 -0.32 8 -1 8 C-1 8.66 -1 9.32 -1 10 C-1.66 10 -2.32 10 -3 10 C-2.01 6.7 -1.02 3.4 0 0 Z " fill="#DBF1F9" transform="translate(255,484)"/>
<path d="M0 0 C0.66666667 1.33333333 1.33333333 2.66666667 2 4 C2.37125 4.680625 2.7425 5.36125 3.125 6.0625 C4 8 4 8 4 11 C3.34 11 2.68 11 2 11 C-0.06874624 7.00042393 -1.37656391 4.43559483 0 0 Z " fill="#D5EBF3" transform="translate(290,480)"/>
<path d="M0 0 C0.66 0.33 1.32 0.66 2 1 C0.68 4.63 -0.64 8.26 -2 12 C-2.33 12 -2.66 12 -3 12 C-2.88541307 10.56163249 -2.75790884 9.12429034 -2.625 7.6875 C-2.55539063 6.88699219 -2.48578125 6.08648437 -2.4140625 5.26171875 C-2 3 -2 3 0 0 Z " fill="#DEF4FB" transform="translate(211,480)"/>
<path d="M0 0 C2 1 2 1 2.8515625 3.28515625 C3.10679687 4.20167969 3.36203125 5.11820312 3.625 6.0625 C3.88539063 6.98160156 4.14578125 7.90070313 4.4140625 8.84765625 C4.60742188 9.55792969 4.80078125 10.26820313 5 11 C3.5 9.625 3.5 9.625 2 8 C2 7.34 2 6.68 2 6 C1.34 6 0.68 6 0 6 C0 4.02 0 2.04 0 0 Z " fill="#326893" transform="translate(330,445)"/>
<path d="M0 0 C0.99 0.495 0.99 0.495 2 1 C2 1.66 2 2.32 2 3 C2.66 3 3.32 3 4 3 C4.33 5.97 4.66 8.94 5 12 C2.65085508 9.65085508 2.26859643 8.04320554 1.375 4.875 C1.11460937 3.96492188 0.85421875 3.05484375 0.5859375 2.1171875 C0.39257812 1.41851562 0.19921875 0.71984375 0 0 Z " fill="#2B638D" transform="translate(252,379)"/>
<path d="M0 0 C2.52588702 2.36292656 3.88820837 3.66462511 5 7 C4.01 7.495 4.01 7.495 3 8 C2.01 7.34 1.02 6.68 0 6 C-0.1875 2.875 -0.1875 2.875 0 0 Z " fill="#E2E2E2" transform="translate(637,575)"/>
<path d="M0 0 C0.33 0 0.66 0 1 0 C0.125 7.75 0.125 7.75 -1 10 C-1.66 10 -2.32 10 -3 10 C-2.39009109 6.44219804 -1.4216319 3.3171411 0 0 Z " fill="#D3EDF7" transform="translate(231,545)"/>
<path d="M0 0 C0.66 0 1.32 0 2 0 C1.34 1.98 0.68 3.96 0 6 C-0.66 6 -1.32 6 -2 6 C-2.33 6.66 -2.66 7.32 -3 8 C-2.25 2.25 -2.25 2.25 0 0 Z " fill="#EAFBFE" transform="translate(252,522)"/>
<path d="M0 0 C0.66 0 1.32 0 2 0 C1.39009109 3.55780196 0.4216319 6.6828589 -1 10 C-1.33 10 -1.66 10 -2 10 C-1.85950482 8.52031676 -1.71245174 7.04125484 -1.5625 5.5625 C-1.48128906 4.73878906 -1.40007812 3.91507813 -1.31640625 3.06640625 C-1 1 -1 1 0 0 Z " fill="#E0F5FC" transform="translate(196,517)"/>
<path d="M0 0 C0.66 0.33 1.32 0.66 2 1 C2.625 3.5625 2.625 3.5625 3 6 C1.35 6.33 -0.3 6.66 -2 7 C-1.34 4.69 -0.68 2.38 0 0 Z " fill="#D9D9D9" transform="translate(499,476)"/>
<path d="M0 0 C2.18975773 3.28463659 2.99806563 6.20696275 4 10 C3.34 10 2.68 10 2 10 C-1.125 3.375 -1.125 3.375 0 0 Z " fill="#D9EDF5" transform="translate(321,561)"/>
<path d="M0 0 C1.1875 1.625 1.1875 1.625 2 4 C0.625 7.25 0.625 7.25 -1 10 C-2.31223496 6.06329512 -1.24296256 3.87511856 0 0 Z " fill="#34688F" transform="translate(221,564)"/>
<path d="M0 0 C1.65 0.99 3.3 1.98 5 3 C4.67 3.99 4.34 4.98 4 6 C1.525 5.01 1.525 5.01 -1 4 C-0.67 2.68 -0.34 1.36 0 0 Z " fill="#111111" transform="translate(757,559)"/>
<path d="M0 0 C0.99 0 1.98 0 3 0 C3.66 1.65 4.32 3.3 5 5 C3.125 4.6875 3.125 4.6875 1 4 C0.34 3.01 -0.32 2.02 -1 1 C-0.67 0.67 -0.34 0.34 0 0 Z " fill="#131313" transform="translate(652,551)"/>
<path d="M0 0 C1.90318884 2.85478326 2.4619099 4.41941308 3.125 7.6875 C3.29257812 8.49574219 3.46015625 9.30398438 3.6328125 10.13671875 C3.75398438 10.75160156 3.87515625 11.36648438 4 12 C1.02449969 8.9315153 0.03525487 7.53763669 -0.25 3.1875 C-0.1675 2.135625 -0.085 1.08375 0 0 Z " fill="#2E6691" transform="translate(370,545)"/>
<path d="M0 0 C2.18975773 3.28463659 2.99806563 6.20696275 4 10 C3.01 9.67 2.02 9.34 1 9 C-0.4783226 6.04335481 -0.06032783 3.25770263 0 0 Z " fill="#C9E7F3" transform="translate(296,496)"/>
<path d="M0 0 C0.66 0.66 1.32 1.32 2 2 C0.68 3.65 -0.64 5.3 -2 7 C-3.32 6.67 -4.64 6.34 -6 6 C-4 4 -2 2 0 0 Z " fill="#DFF2F9" transform="translate(418,414)"/>
<path d="M0 0 C0.66 1.32 1.32 2.64 2 4 C1.01 4 0.02 4 -1 4 C-1 6.97 -1 9.94 -1 13 C-1.33 13 -1.66 13 -2 13 C-2.05416188 11.39620659 -2.09286638 9.79188594 -2.125 8.1875 C-2.14820313 7.29417969 -2.17140625 6.40085937 -2.1953125 5.48046875 C-2 3 -2 3 0 0 Z " fill="#3472A1" transform="translate(314,403)"/>
<path d="M0 0 C2.18975773 3.28463659 2.99806563 6.20696275 4 10 C3.01 10.495 3.01 10.495 2 11 C0.57741188 7.17679443 -0.24042276 4.08718695 0 0 Z " fill="#DAEFF8" transform="translate(255,389)"/>
<path d="M0 0 C0.33 0 0.66 0 1 0 C0.67 2.31 0.34 4.62 0 7 C-0.99 7.33 -1.98 7.66 -3 8 C-3 4.41465407 -1.97637955 2.92504174 0 0 Z " fill="#E7E7E7" transform="translate(620,568)"/>
<path d="M0 0 C0.66 0 1.32 0 2 0 C2.66 1.98 3.32 3.96 4 6 C3.34 6.66 2.68 7.32 2 8 C0.74335022 5.09399739 0 3.20395416 0 0 Z " fill="#3472A0" transform="translate(240,509)"/>
<path d="M0 0 C0.99 0.33 1.98 0.66 3 1 C3.33 3.97 3.66 6.94 4 10 C1.7448078 7.7448078 1.02276532 5.9952413 0 3 C0 2.01 0 1.02 0 0 Z " fill="#2B6590" transform="translate(298,499)"/>
<path d="M0 0 C0.33 0 0.66 0 1 0 C1.25 5.625 1.25 5.625 -1 9 C-1.66 9 -2.32 9 -3 9 C-2.01 6.03 -1.02 3.06 0 0 Z " fill="#41759F" transform="translate(209,489)"/>
<path d="M0 0 C0.66 0 1.32 0 2 0 C0.66666667 3.33333333 -0.66666667 6.66666667 -2 10 C-2.6875 8.375 -2.6875 8.375 -3 6 C-1.5625 2.75 -1.5625 2.75 0 0 Z " fill="#D9F2FA" transform="translate(374,384)"/>
</svg>
